<svg xmlns="http://www.w3.org/2000/svg" viewBox="0 0 1600 900" width="1600" height="900" role="img" aria-label="Gym CRM cover">
  <defs>
    <linearGradient id="bg" x1="0" y1="0" x2="1" y2="1">
      <stop offset="0" stop-color="hsla(47, 32%, 8%, 1)"/>
      <stop offset="0.55" stop-color="hsla(47, 28%, 5%, 1)"/>
      <stop offset="1" stop-color="#040406"/>
    </linearGradient>
    <radialGradient id="orbA" cx="0.18" cy="0.2" r="0.6">
      <stop offset="0" stop-color="hsla(47, 90%, 60%, 0.55)"/>
      <stop offset="1" stop-color="hsla(47, 90%, 60%, 0)"/>
    </radialGradient>
    <radialGradient id="orbB" cx="0.9" cy="0.95" r="0.7">
      <stop offset="0" stop-color="hsla(59, 85%, 58%, 0.4)"/>
      <stop offset="1" stop-color="hsla(59, 85%, 58%, 0)"/>
    </radialGradient>
    <linearGradient id="glass" x1="0" y1="0" x2="0" y2="1">
      <stop offset="0" stop-color="rgba(255,255,255,0.07)"/>
      <stop offset="1" stop-color="rgba(255,255,255,0.02)"/>
    </linearGradient>
    <pattern id="grid" width="46" height="46" patternUnits="userSpaceOnUse">
      <circle cx="1.5" cy="1.5" r="1.5" fill="rgba(255,255,255,0.05)"/>
    </pattern>
    <linearGradient id="title" x1="0" y1="0" x2="1" y2="0">
      <stop offset="0" stop-color="#ffffff"/>
      <stop offset="1" stop-color="hsla(47, 70%, 82%, 1)"/>
    </linearGradient>
  </defs>

  <rect width="1600" height="900" fill="url(#bg)"/>
  <rect width="1600" height="900" fill="url(#grid)"/>
  <rect width="1600" height="900" fill="url(#orbA)"/>
  <rect width="1600" height="900" fill="url(#orbB)"/>

  <!-- glass app window -->
  <g>
    <rect x="120" y="170" width="1360" height="600" rx="28" fill="url(#glass)" stroke="rgba(255,255,255,0.12)" stroke-width="1.5"/>
    <rect x="120" y="170" width="1360" height="64" rx="28" fill="rgba(255,255,255,0.03)"/>
    <circle cx="168" cy="202" r="8" fill="hsla(47, 80%, 62%, 1)"/>
    <circle cx="198" cy="202" r="8" fill="rgba(255,255,255,0.22)"/>
    <circle cx="228" cy="202" r="8" fill="rgba(255,255,255,0.22)"/>
    <rect x="640" y="188" width="320" height="28" rx="14" fill="rgba(255,255,255,0.05)"/>
    
        
        <g>
          <rect x="170" y="320" width="290" height="92" rx="14" fill="hsla(47, 55%, 30%, 0.55)"/>
          <rect x="192" y="344" width="100" height="10" rx="5" fill="hsla(47, 30%, 70%, 0.5)"/>
          <rect x="192" y="368" width="132" height="20" rx="10" fill="hsla(47, 85%, 62%, 1)"/>
        </g>
        <g>
          <rect x="480" y="320" width="290" height="92" rx="14" fill="rgba(255,255,255,0.05)"/>
          <rect x="502" y="344" width="100" height="10" rx="5" fill="hsla(47, 30%, 70%, 0.5)"/>
          <rect x="502" y="368" width="104" height="20" rx="10" fill="rgba(255,255,255,0.14)"/>
        </g>
        <rect x="170" y="440" width="460" height="190" rx="16" fill="rgba(255,255,255,0.04)" stroke="rgba(255,255,255,0.10)"/>
        
        <g>
          <circle cx="206" cy="480" r="14" fill="hsla(47, 85%, 62%, 1)"/>
          <rect x="234" y="472" width="180" height="14" rx="7" fill="rgba(255,255,255,0.3)"/>
          <rect x="520" y="470" width="84" height="20" rx="10" fill="hsla(47, 70%, 45%, 0.85)"/>
        </g>
        <g>
          <circle cx="206" cy="536" r="14" fill="hsla(47, 30%, 70%, 0.5)"/>
          <rect x="234" y="528" width="146" height="14" rx="7" fill="rgba(255,255,255,0.3)"/>
          <rect x="520" y="526" width="84" height="20" rx="10" fill="hsla(47, 70%, 45%, 0.85)"/>
        </g>
        <g>
          <circle cx="206" cy="592" r="14" fill="hsla(47, 30%, 70%, 0.5)"/>
          <rect x="234" y="584" width="180" height="14" rx="7" fill="rgba(255,255,255,0.3)"/>
          <rect x="520" y="582" width="84" height="20" rx="10" fill="rgba(255,255,255,0.10)"/>
        </g>
        <rect x="660" y="320" width="420" height="310" rx="16" fill="rgba(255,255,255,0.03)" stroke="rgba(255,255,255,0.10)"/>
        <rect x="692" y="352" width="38" height="38" rx="9" fill="hsla(47, 85%, 62%, 1)" opacity="0.55"/><rect x="746" y="352" width="38" height="38" rx="9" fill="rgba(255,255,255,0.07)" opacity="1"/><rect x="800" y="352" width="38" height="38" rx="9" fill="hsla(47, 85%, 62%, 1)" opacity="0.8500000000000001"/><rect x="854" y="352" width="38" height="38" rx="9" fill="rgba(255,255,255,0.07)" opacity="1"/><rect x="908" y="352" width="38" height="38" rx="9" fill="hsla(47, 85%, 62%, 1)" opacity="0.55"/><rect x="962" y="352" width="38" height="38" rx="9" fill="rgba(255,255,255,0.07)" opacity="1"/><rect x="1016" y="352" width="38" height="38" rx="9" fill="hsla(47, 85%, 62%, 1)" opacity="0.8500000000000001"/><rect x="692" y="418" width="38" height="38" rx="9" fill="rgba(255,255,255,0.07)" opacity="1"/><rect x="746" y="418" width="38" height="38" rx="9" fill="rgba(255,255,255,0.07)" opacity="1"/><rect x="800" y="418" width="38" height="38" rx="9" fill="hsla(47, 85%, 62%, 1)" opacity="1"/><rect x="854" y="418" width="38" height="38" rx="9" fill="rgba(255,255,255,0.07)" opacity="1"/><rect x="908" y="418" width="38" height="38" rx="9" fill="hsla(47, 85%, 62%, 1)" opacity="0.7000000000000001"/><rect x="962" y="418" width="38" height="38" rx="9" fill="rgba(255,255,255,0.07)" opacity="1"/><rect x="1016" y="418" width="38" height="38" rx="9" fill="hsla(47, 85%, 62%, 1)" opacity="1"/><rect x="692" y="484" width="38" height="38" rx="9" fill="rgba(255,255,255,0.07)" opacity="1"/><rect x="746" y="484" width="38" height="38" rx="9" fill="hsla(47, 85%, 62%, 1)" opacity="0.7000000000000001"/><rect x="800" y="484" width="38" height="38" rx="9" fill="rgba(255,255,255,0.07)" opacity="1"/><rect x="854" y="484" width="38" height="38" rx="9" fill="rgba(255,255,255,0.07)" opacity="1"/><rect x="908" y="484" width="38" height="38" rx="9" fill="hsla(47, 85%, 62%, 1)" opacity="0.8500000000000001"/><rect x="962" y="484" width="38" height="38" rx="9" fill="rgba(255,255,255,0.07)" opacity="1"/><rect x="1016" y="484" width="38" height="38" rx="9" fill="hsla(47, 85%, 62%, 1)" opacity="0.55"/><rect x="692" y="550" width="38" height="38" rx="9" fill="rgba(255,255,255,0.07)" opacity="1"/><rect x="746" y="550" width="38" height="38" rx="9" fill="hsla(47, 85%, 62%, 1)" opacity="0.8500000000000001"/><rect x="800" y="550" width="38" height="38" rx="9" fill="rgba(255,255,255,0.07)" opacity="1"/><rect x="854" y="550" width="38" height="38" rx="9" fill="hsla(47, 85%, 62%, 1)" opacity="0.55"/><rect x="908" y="550" width="38" height="38" rx="9" fill="rgba(255,255,255,0.07)" opacity="1"/><rect x="962" y="550" width="38" height="38" rx="9" fill="rgba(255,255,255,0.07)" opacity="1"/><rect x="1016" y="550" width="38" height="38" rx="9" fill="hsla(47, 85%, 62%, 1)" opacity="0.7000000000000001"/>
        <rect x="1110" y="320" width="220" height="92" rx="14" fill="hsla(47, 55%, 28%, 0.5)"/>
        <rect x="1134" y="344" width="120" height="10" rx="5" fill="rgba(255,255,255,0.35)"/>
        <rect x="1134" y="368" width="90" height="20" rx="10" fill="hsla(65, 80%, 64%, 1)"/>
        <g>
          <rect x="1130" y="540" width="180" height="14" rx="7" fill="hsla(47, 30%, 70%, 0.5)"/>
          <rect x="1118" y="512" width="20" height="70" rx="8" fill="hsla(47, 85%, 62%, 1)"/>
          <rect x="1140" y="522" width="16" height="50" rx="7" fill="hsla(47, 60%, 38%, 1)"/>
          <rect x="1302" y="512" width="20" height="70" rx="8" fill="hsla(47, 85%, 62%, 1)"/>
          <rect x="1284" y="522" width="16" height="50" rx="7" fill="hsla(47, 60%, 38%, 1)"/>
        </g>
  </g>

  <!-- label + title -->
  <g font-family="Inter, ui-sans-serif, system-ui, sans-serif">
    <text x="120" y="105" font-size="26" letter-spacing="6" fill="hsla(47, 75%, 72%, 1)" font-weight="600">09 — CRM · FITNESS</text>
    <text x="118" y="845" font-size="96" font-weight="600" letter-spacing="-3" fill="url(#title)">Gym CRM</text>
  </g>
</svg>